<svg width="51" height="45" viewBox="0 0 51 45" fill="none" xmlns="http://www.w3.org/2000/svg">
<circle cx="20" cy="20" r="19.5" stroke="white"/>
<path d="M27.8125 18.2866H13.7287L18.0394 12.9928C18.2409 12.7448 18.3379 12.4251 18.309 12.1041C18.28 11.783 18.1275 11.4869 17.885 11.2808C17.6425 11.0747 17.3298 10.9755 17.0158 11.0051C16.7018 11.0347 16.4122 11.1907 16.2106 11.4386L10.2731 18.7237C10.2332 18.7816 10.1975 18.8425 10.1662 18.9058C10.1662 18.9665 10.1663 19.0029 10.0831 19.0637C10.0293 19.2029 10.0011 19.3511 10 19.5008C10.0011 19.6505 10.0293 19.7986 10.0831 19.9379C10.0831 19.9986 10.0831 20.035 10.1662 20.0957C10.1975 20.159 10.2332 20.2199 10.2731 20.2778L16.2106 27.5629C16.3223 27.7 16.4621 27.8102 16.6201 27.8857C16.7782 27.9613 16.9505 28.0003 17.125 28C17.4025 28.0006 17.6714 27.9017 17.885 27.7207C18.0052 27.6188 18.1046 27.4936 18.1775 27.3524C18.2504 27.2111 18.2952 27.0565 18.3096 26.8975C18.3239 26.7385 18.3074 26.5781 18.2611 26.4256C18.2147 26.2731 18.1394 26.1314 18.0394 26.0087L13.7287 20.7149H27.8125C28.1274 20.7149 28.4295 20.587 28.6522 20.3593C28.8749 20.1316 29 19.8228 29 19.5008C29 19.1787 28.8749 18.8699 28.6522 18.6422C28.4295 18.4145 28.1274 18.2866 27.8125 18.2866Z" fill="white"/>
</svg>
